Coordinates
version=1
nRows=54
nColumns=13
inDegrees=yes

Units are S.I. units (second, meters, Newtons, ...)
If the header above contains a line with 'inDegrees', this indicates whether rotational values are in degrees (yes) or radians (no).

endheader
time	bJoint_3	seatpos	hipangle	kneeangle	footangle	lbackangle	uarmleft_out	uarmleft_trn	uarmleft_up	uarmright_out	uarmright_trn	uarmright_up
      0.00000000	     -0.00000000	     -0.65652386	     23.53915583	    145.00869385	     78.54784968	     11.44976768	    -12.60025109	    -43.88983260	      0.00000000	     -8.32220367	    -42.28855188	      0.00000000
      0.00500000	     -0.00000000	     -0.65628102	     23.55042169	    144.97813592	     78.52855761	     11.40293725	    -12.47313597	    -43.91795811	      0.00000000	     -8.28976347	    -42.18340012	      0.00000000
      0.01000000	     -0.00000000	     -0.65552414	     23.58560003	    144.88286624	     78.46846626	     11.44974136	    -12.60013815	    -43.88981874	      0.00000000	     -8.32215425	    -42.28856727	      0.00000000
      0.01500000	     -0.00000000	     -0.65529696	     23.59617813	    144.85426250	     78.45044063	     11.41583303	    -12.56919006	    -43.80430119	      0.00000000	     -8.30377966	    -42.20577965	      0.00000000
      0.02000000	     -0.00000000	     -0.65429729	     23.64282925	    144.72835432	     78.37118357	     11.41636469	    -12.56993667	    -43.80517514	      0.00000000	     -8.39992077	    -41.92517724	      0.00000000
      0.02500000	     -0.00000000	     -0.65352469	     23.67899934	    144.63099776	     78.30999710	     11.45025486	    -12.67907081	    -43.60598708	      0.00000000	     -8.41890003	    -42.00753963	      0.00000000
      0.03000000	     -0.00000000	     -0.65328196	     23.69038386	    144.60040184	     78.29078570	     11.40349883	    -12.55274830	    -43.63354604	      0.00000000	     -8.38542151	    -41.90370429	      0.00000000
      0.03500000	     -0.00000000	     -0.65229362	     23.73683996	    144.47578181	     78.21262177	     11.40266874	    -12.62856847	    -43.49850190	      0.00000000	     -8.38391979	    -41.75022578	      0.00000000
      0.04000000	     -0.00000000	     -0.65128277	     23.78452221	    144.34825176	     78.13277398	     11.40430865	    -12.63388172	    -43.35035116	      0.00000000	     -8.48028571	    -41.62359369	      0.00000000
      0.04500000	     -0.00000000	     -0.65030052	     23.83101631	    144.22426246	     78.05527877	     11.41730249	    -12.72692586	    -43.23856892	      0.00000000	     -8.49471967	    -41.64567265	      0.00000000
      0.05000000	     -0.00000000	     -0.64927312	     23.87981633	    144.09450129	     77.97431762	     11.39154520	    -12.69370062	    -43.04423946	      0.00000000	     -8.46772614	    -41.44834090	      0.00000000
      0.05500000	     -0.00000000	     -0.64828579	     23.92687462	    143.96973060	     77.89660522	     11.41084232	    -12.71828458	    -43.07645777	      0.00000000	     -8.32679739	    -41.30571872	      0.00000000
      0.06000000	     -0.00000000	     -0.64653002	     24.01094474	    143.74768300	     77.75862774	     11.45878360	    -12.92159221	    -42.76570856	      0.00000000	     -8.45544912	    -41.12930081	      0.00000000
      0.06500000	     -0.00000000	     -0.64552851	     24.05911871	    143.62092809	     77.68004681	     11.45910341	    -12.92382851	    -42.76183164	      0.00000000	     -8.45374607	    -41.13388042	      0.00000000
      0.07000000	     -0.00000000	     -0.64428397	     24.11920290	    143.46331607	     77.58251896	     11.39923274	    -12.85407722	    -42.48810766	      0.00000000	     -8.40732556	    -40.85175694	      0.00000000
      0.07500000	     -0.00000000	     -0.64328890	     24.16741670	    143.33722042	     77.50463711	     11.41398014	    -12.87535092	    -42.51192160	      0.00000000	     -8.51750572	    -40.74904661	      0.00000000
      0.08000000	     -0.00000000	     -0.64153270	     24.25288273	    143.11450439	     77.36738711	     11.46244979	    -13.07708949	    -42.20309585	      0.00000000	     -8.64620895	    -40.57131926	      0.00000000
      0.08500000	     -0.00000000	     -0.64028768	     24.31375729	    142.95648511	     77.27024240	     11.40335208	    -13.00937850	    -41.92527767	      0.00000000	     -8.59752801	    -40.29572560	      0.00000000
      0.09000000	     -0.00000000	     -0.63831087	     24.41089381	    142.70536213	     77.11625594	     11.43159718	    -13.12246776	    -41.84018747	      0.00000000	     -8.72115491	    -40.21665653	      0.00000000
      0.09500000	     -0.00000000	     -0.63728967	     24.46130235	    142.57552747	     77.03682982	     11.40588474	    -13.08663412	    -41.64461911	      0.00000000	     -8.69216066	    -40.01876578	      0.00000000
      0.10000000	     -0.00000000	     -0.63529271	     24.56032142	    142.32142432	     76.88174574	     11.40857954	    -13.16345723	    -41.36442973	      0.00000000	     -8.78586529	    -39.74163119	      0.00000000
      0.10500000	     -0.00000000	     -0.63331188	     24.65911525	    142.06909827	     76.72821353	     11.42389238	    -13.25633863	    -41.25988711	      0.00000000	     -8.89329283	    -39.48555710	      0.00000000
      0.11000000	     -0.00000000	     -0.63154390	     24.74777021	    141.84365347	     76.59142367	     11.47286343	    -13.38348659	    -41.08025184	      0.00000000	     -9.02134285	    -39.46398697	      0.00000000
      0.11500000	     -0.00000000	     -0.62952854	     24.84937109	    141.58639699	     76.43576808	     11.46259645	    -13.36963448	    -40.90759838	      0.00000000	     -9.09897199	    -39.16584155	      0.00000000
      0.12000000	     -0.00000000	     -0.62752549	     24.95091513	    141.33042955	     76.28134468	     11.45094323	    -13.42418072	    -40.60442722	      0.00000000	     -9.08496917	    -38.98898145	      0.00000000
      0.12500000	      0.00000000	     -0.62552882	     25.05268778	    141.07499619	     76.12768397	     11.45472271	    -13.50015641	    -40.32557815	      0.00000000	     -9.17738351	    -38.71355928	      0.00000000
      0.13000000	     -0.00000000	     -0.62353254	     25.15498375	    140.81933282	     75.97431657	     11.45877870	    -13.57591793	    -40.04725185	      0.00000000	     -9.26938546	    -38.43864463	      0.00000000
      0.13500000	     -0.00000000	     -0.62153661	     25.25779814	    140.56343286	     75.82123100	     11.46311561	    -13.65143203	    -39.76945260	      0.00000000	     -9.36101819	    -38.16427086	      0.00000000
      0.14000000	     -0.00000000	     -0.61929292	     25.37400646	    140.27543178	     75.64943823	     11.40637389	    -13.58510611	    -39.49664671	      0.00000000	     -9.31190273	    -37.89185374	      0.00000000
      0.14500000	     -0.00000000	     -0.61729749	     25.47791095	    140.01899741	     75.49690836	     11.41127397	    -13.66061328	    -39.21991990	      0.00000000	     -9.40305308	    -37.61862654	      0.00000000
      0.15000000	     -0.00000000	     -0.61452359	     25.62320486	    139.66205312	     75.28525798	     11.44815051	    -13.76750658	    -39.01755234	      0.00000000	     -9.51456515	    -37.41692733	      0.00000000
      0.15500000	     -0.00000000	     -0.61230784	     25.73996725	    139.37653754	     75.11650479	     11.42189307	    -13.81069284	    -38.66815354	      0.00000000	     -9.58453248	    -37.07376367	      0.00000000
      0.16000000	     -0.00000000	     -0.60952801	     25.88732511	    139.01783967	     74.90516478	     11.44667897	    -13.89950733	    -38.44693149	      0.00000000	     -9.68029480	    -36.68924993	      0.00000000
      0.16500000	      0.00000000	     -0.60731270	     26.00544119	    138.73158974	     74.73703092	     11.42140502	    -13.94291298	    -38.09985654	      0.00000000	     -9.74909963	    -36.34927863	      0.00000000
      0.17000000	     -0.00000000	     -0.60452287	     26.15503931	    138.37060182	     74.52564113	     11.44745130	    -14.03318634	    -37.71704267	      0.00000000	     -9.84685860	    -36.12817462	      0.00000000
      0.17500000	     -0.00000000	     -0.60228132	     26.27591435	    138.08015118	     74.35606553	     11.39257329	    -13.96816949	    -37.44728216	      0.00000000	     -9.79781431	    -35.85913876	      0.00000000
      0.18000000	     -0.00000000	     -0.59931153	     26.43697518	    137.69477756	     74.13175274	     11.41792740	    -14.13310339	    -37.08243756	      0.00000000	     -9.98907804	    -35.33691415	      0.00000000
      0.18500000	     -0.00000000	     -0.59631927	     26.60029413	    137.30583976	     73.90613389	     11.42528454	    -14.20758265	    -36.80996567	      0.00000000	    -10.07756518	    -35.06835383	      0.00000000
      0.19000000	     -0.00000000	     -0.59331038	     26.76555787	    136.91407914	     73.67963700	     11.42181107	    -14.26625421	    -36.35756143	      0.00000000	    -10.15346541	    -34.78193929	      0.00000000
      0.19500000	     -0.00000000	     -0.59031260	     26.93122855	    136.52310397	     73.45433251	     11.41807296	    -14.32370678	    -36.06889449	      0.00000000	    -10.22680696	    -34.33023381	      0.00000000
      0.20000000	     -0.00000000	     -0.58730481	     27.09845829	    136.13015514	     73.22861343	     11.41546705	    -14.38126523	    -35.61456845	      0.00000000	    -10.30362346	    -34.04780735	      0.00000000
      0.20500000	     -0.00000000	     -0.58430734	     27.26610310	    135.73788448	     73.00398758	     11.41268816	    -14.43978232	    -35.32958055	      0.00000000	    -10.37614782	    -33.59432246	      0.00000000
      0.21000000	     -0.00000000	     -0.58130037	     27.43525720	    135.34369327	     72.77895047	     11.41101100	    -14.49901882	    -34.87595698	      0.00000000	    -10.45125076	    -33.31311163	      0.00000000
      0.21500000	     -0.00000000	     -0.57828768	     27.60570072	    134.94807141	     72.55377213	     11.39847807	    -14.54183548	    -34.40700775	      0.00000000	    -10.51246151	    -32.84523803	      0.00000000
      0.22000000	     -0.00000000	     -0.57454000	     27.81906226	    134.45496766	     72.27402992	     11.45884670	    -14.73663449	    -34.11925088	      0.00000000	    -10.72116742	    -32.39195460	      0.00000000
      0.22500000	     -0.00000000	     -0.57131015	     28.00411299	    134.02913725	     72.03325024	     11.41214743	    -14.74017890	    -33.58180937	      0.00000000	    -10.67836910	    -32.13625778	      0.00000000
      0.23000000	     -0.00000000	     -0.56752289	     28.22246134	    133.52879052	     71.75125186	     11.44799756	    -14.83976179	    -33.19795641	      0.00000000	    -10.85689863	    -31.64747487	      0.00000000
      0.23500000	     -0.00000000	     -0.56431525	     28.40852607	    133.10414801	     71.51267409	     11.41872881	    -14.86713574	    -32.85801517	      0.00000000	    -10.90668890	    -31.13850150	      0.00000000
      0.24000000	     -0.00000000	     -0.56054286	     28.62866435	    132.60370623	     71.23237058	     11.45422121	    -15.02162012	    -32.36554163	      0.00000000	    -11.00955458	    -30.75153651	      0.00000000
      0.24500000	     -0.00000000	     -0.55729550	     28.81928797	    132.17201222	     70.99130018	     11.40098535	    -14.95645838	    -31.92625306	      0.00000000	    -11.03054689	    -30.21074344	      0.00000000
      0.25000000	     -0.00000000	     -0.55331237	     29.05450389	    131.64135711	     70.69586100	     11.40871938	    -15.08018638	    -31.37865926	      0.00000000	    -11.11075330	    -29.76778367	      0.00000000
      0.25500000	     -0.00000000	     -0.54952692	     29.27946230	    131.13584909	     70.41531139	     11.44785062	    -15.18245995	    -30.99288034	      0.00000000	    -11.28772625	    -29.28302571	      0.00000000
      0.26000000	     -0.00000000	     -0.54554587	     29.51751483	    130.60296001	     70.12047484	     11.45715657	    -15.30607276	    -30.44841330	      0.00000000	    -11.36846309	    -28.84103376	      0.00000000
      0.26500000	     -0.00000000	     -0.54153917	     29.75860720	    130.06531570	     69.82392290	     11.45155845	    -15.35276403	    -29.98608151	      0.00000000	    -11.43098525	    -28.37935511	      0.00000000
